{
	"asset":{
		"generator":"Khronos glTF Blender I/O v4.3.47",
		"version":"2.0"
	},
	"scene":0,
	"scenes":[
		{
			"name":"Scene",
			"nodes":[
				2
			]
		}
	],
	"nodes":[
		{
			"mesh":0,
			"name":"Object_2"
		},
		{
			"children":[
				0
			],
			"name":"05bc4a03771d42a983d8475054dae520.stl.cleaner.materialmerger.gle"
		},
		{
			"children":[
				1
			],
			"name":"snowboard",
			"rotation":[
				-0.70710688829422,
				0,
				0,
				0.7071066498756409
			],
			"scale":[
				0.009999999776482582,
				0.010000000707805157,
				0.010000000707805157
			]
		}
	],
	"materials":[
		{
			"doubleSided":true,
			"name":"Scene_-_Root",
			"pbrMetallicRoughness":{
				"metallicFactor":0,
				"roughnessFactor":0.6000000238418579
			}
		}
	],
	"meshes":[
		{
			"name":"Object_0",
			"primitives":[
				{
					"attributes":{
						"POSITION":0,
						"NORMAL":1,
						"COLOR_0":2
					},
					"indices":3,
					"material":0
				}
			]
		}
	],
	"accessors":[
		{
			"bufferView":0,
			"componentType":5126,
			"count":3297,
			"max":[
				26,
				31,
				7.957059860229492
			],
			"min":[
				-174,
				-14.000000953674316,
				-3.552713678800501e-15
			],
			"type":"VEC3"
		},
		{
			"bufferView":1,
			"componentType":5126,
			"count":3297,
			"type":"VEC3"
		},
		{
			"bufferView":2,
			"componentType":5126,
			"count":3297,
			"type":"VEC3"
		},
		{
			"bufferView":3,
			"componentType":5123,
			"count":9888,
			"type":"SCALAR"
		}
	],
	"bufferViews":[
		{
			"buffer":0,
			"byteLength":39564,
			"byteOffset":0,
			"target":34962
		},
		{
			"buffer":0,
			"byteLength":39564,
			"byteOffset":39564,
			"target":34962
		},
		{
			"buffer":0,
			"byteLength":39564,
			"byteOffset":79128,
			"target":34962
		},
		{
			"buffer":0,
			"byteLength":19776,
			"byteOffset":118692,
			"target":34963
		}
	],
	"buffers":[
		{
			"byteLength":138468,
			"uri":"scene.bin"
		}
	]
}
