{
	"asset":{
		"generator":"Khronos glTF Blender I/O v4.3.47",
		"version":"2.0"
	},
	"scene":0,
	"scenes":[
		{
			"name":"Scene",
			"nodes":[
				9
			]
		}
	],
	"nodes":[
		{
			"mesh":0,
			"name":"Object_2"
		},
		{
			"mesh":1,
			"name":"Object_3"
		},
		{
			"mesh":2,
			"name":"Object_4"
		},
		{
			"mesh":3,
			"name":"Object_5"
		},
		{
			"mesh":4,
			"name":"Object_6"
		},
		{
			"mesh":5,
			"name":"Object_7"
		},
		{
			"mesh":6,
			"name":"Object_8"
		},
		{
			"mesh":7,
			"name":"Object_9"
		},
		{
			"children":[
				0,
				1,
				2,
				3,
				4,
				5,
				6,
				7
			],
			"name":"pallone calcio2.obj.cleaner.materialmerger.gles"
		},
		{
			"children":[
				8
			],
			"name":"soccer",
			"rotation":[
				-0.70710688829422,
				0,
				0,
				0.7071066498756409
			],
			"scale":[
				0.25,
				0.2500000298023224,
				0.2500000298023224
			]
		}
	],
	"materials":[
		{
			"doubleSided":true,
			"name":"Material.004",
			"normalTexture":{
				"index":0
			},
			"pbrMetallicRoughness":{
				"baseColorTexture":{
					"index":1
				},
				"metallicFactor":0,
				"roughnessFactor":0.6000000238418579
			}
		}
	],
	"meshes":[
		{
			"name":"Object_0",
			"primitives":[
				{
					"attributes":{
						"POSITION":0,
						"NORMAL":1,
						"TEXCOORD_0":2
					},
					"indices":3,
					"material":0
				}
			]
		},
		{
			"name":"Object_1",
			"primitives":[
				{
					"attributes":{
						"POSITION":4,
						"NORMAL":5,
						"TEXCOORD_0":6
					},
					"indices":7,
					"material":0
				}
			]
		},
		{
			"name":"Object_2",
			"primitives":[
				{
					"attributes":{
						"POSITION":8,
						"NORMAL":9,
						"TEXCOORD_0":10
					},
					"indices":11,
					"material":0
				}
			]
		},
		{
			"name":"Object_3",
			"primitives":[
				{
					"attributes":{
						"POSITION":12,
						"NORMAL":13,
						"TEXCOORD_0":14
					},
					"indices":15,
					"material":0
				}
			]
		},
		{
			"name":"Object_4",
			"primitives":[
				{
					"attributes":{
						"POSITION":16,
						"NORMAL":17,
						"TEXCOORD_0":18
					},
					"indices":19,
					"material":0
				}
			]
		},
		{
			"name":"Object_5",
			"primitives":[
				{
					"attributes":{
						"POSITION":20,
						"NORMAL":21,
						"TEXCOORD_0":22
					},
					"indices":23,
					"material":0
				}
			]
		},
		{
			"name":"Object_6",
			"primitives":[
				{
					"attributes":{
						"POSITION":24,
						"NORMAL":25,
						"TEXCOORD_0":26
					},
					"indices":27,
					"material":0
				}
			]
		},
		{
			"name":"Object_7",
			"primitives":[
				{
					"attributes":{
						"POSITION":28,
						"NORMAL":29,
						"TEXCOORD_0":30
					},
					"indices":31,
					"material":0
				}
			]
		}
	],
	"textures":[
		{
			"sampler":0,
			"source":0
		},
		{
			"sampler":0,
			"source":1
		}
	],
	"images":[
		{
			"mimeType":"image/png",
			"name":"Material.004_normal",
			"uri":"Material_004_normal.png"
		},
		{
			"mimeType":"image/png",
			"name":"Material.004_baseColor",
			"uri":"Material_004_baseColor.png"
		}
	],
	"accessors":[
		{
			"bufferView":0,
			"componentType":5126,
			"count":68739,
			"max":[
				0.4964579939842224,
				0.5174199938774109,
				0.4930950105190277
			],
			"min":[
				-0.4964599907398224,
				0.09926500171422958,
				-0.26720699667930603
			],
			"type":"VEC3"
		},
		{
			"bufferView":1,
			"componentType":5126,
			"count":68739,
			"type":"VEC3"
		},
		{
			"bufferView":2,
			"componentType":5126,
			"count":68739,
			"type":"VEC2"
		},
		{
			"bufferView":3,
			"componentType":5125,
			"count":86379,
			"type":"SCALAR"
		},
		{
			"bufferView":4,
			"componentType":5126,
			"count":68919,
			"max":[
				0.40485700964927673,
				0.43474799394607544,
				0.49231401085853577
			],
			"min":[
				-0.49643099308013916,
				-0.517408013343811,
				-0.4931179881095886
			],
			"type":"VEC3"
		},
		{
			"bufferView":5,
			"componentType":5126,
			"count":68919,
			"type":"VEC3"
		},
		{
			"bufferView":6,
			"componentType":5126,
			"count":68919,
			"type":"VEC2"
		},
		{
			"bufferView":7,
			"componentType":5125,
			"count":86706,
			"type":"SCALAR"
		},
		{
			"bufferView":8,
			"componentType":5126,
			"count":68615,
			"max":[
				0.5163800120353699,
				0.43725699186325073,
				0.4930950105190277
			],
			"min":[
				-0.282370001077652,
				-0.43722501397132874,
				-0.4931179881095886
			],
			"type":"VEC3"
		},
		{
			"bufferView":9,
			"componentType":5126,
			"count":68615,
			"type":"VEC3"
		},
		{
			"bufferView":10,
			"componentType":5126,
			"count":68615,
			"type":"VEC2"
		},
		{
			"bufferView":11,
			"componentType":5125,
			"count":85893,
			"type":"SCALAR"
		},
		{
			"bufferView":12,
			"componentType":5126,
			"count":69136,
			"max":[
				0.5070970058441162,
				0.5041319727897644,
				0.49985599517822266
			],
			"min":[
				-0.4608840048313141,
				-0.33966198563575745,
				-0.49237099289894104
			],
			"type":"VEC3"
		},
		{
			"bufferView":13,
			"componentType":5126,
			"count":69136,
			"type":"VEC3"
		},
		{
			"bufferView":14,
			"componentType":5126,
			"count":69136,
			"type":"VEC2"
		},
		{
			"bufferView":15,
			"componentType":5125,
			"count":88002,
			"type":"SCALAR"
		},
		{
			"bufferView":16,
			"componentType":5126,
			"count":68916,
			"max":[
				0.4958919882774353,
				0.4735110104084015,
				0.5141850113868713
			],
			"min":[
				-0.5163750052452087,
				-0.43725499510765076,
				-0.5007690191268921
			],
			"type":"VEC3"
		},
		{
			"bufferView":17,
			"componentType":5126,
			"count":68916,
			"type":"VEC3"
		},
		{
			"bufferView":18,
			"componentType":5126,
			"count":68916,
			"type":"VEC2"
		},
		{
			"bufferView":19,
			"componentType":5125,
			"count":87207,
			"type":"SCALAR"
		},
		{
			"bufferView":20,
			"componentType":5126,
			"count":69146,
			"max":[
				0.496425986289978,
				0.5041170120239258,
				0.48389101028442383
			],
			"min":[
				-0.5153809785842896,
				-0.43725499510765076,
				-0.5142130255699158
			],
			"type":"VEC3"
		},
		{
			"bufferView":21,
			"componentType":5126,
			"count":69146,
			"type":"VEC3"
		},
		{
			"bufferView":22,
			"componentType":5126,
			"count":69146,
			"type":"VEC2"
		},
		{
			"bufferView":23,
			"componentType":5125,
			"count":87087,
			"type":"SCALAR"
		},
		{
			"bufferView":24,
			"componentType":5126,
			"count":68904,
			"max":[
				0.4608680009841919,
				0.5174189805984497,
				0.3704099953174591
			],
			"min":[
				-0.5070620179176331,
				-0.5174070000648499,
				-0.4931179881095886
			],
			"type":"VEC3"
		},
		{
			"bufferView":25,
			"componentType":5126,
			"count":68904,
			"type":"VEC3"
		},
		{
			"bufferView":26,
			"componentType":5126,
			"count":68904,
			"type":"VEC2"
		},
		{
			"bufferView":27,
			"componentType":5125,
			"count":87156,
			"type":"SCALAR"
		},
		{
			"bufferView":28,
			"componentType":5126,
			"count":60818,
			"max":[
				0.4608690142631531,
				0.33962199091911316,
				0.4930950105190277
			],
			"min":[
				-0.4048539996147156,
				-0.5174070000648499,
				-0.26720699667930603
			],
			"type":"VEC3"
		},
		{
			"bufferView":29,
			"componentType":5126,
			"count":60818,
			"type":"VEC3"
		},
		{
			"bufferView":30,
			"componentType":5126,
			"count":60818,
			"type":"VEC2"
		},
		{
			"bufferView":31,
			"componentType":5123,
			"count":75591,
			"type":"SCALAR"
		}
	],
	"bufferViews":[
		{
			"buffer":0,
			"byteLength":824868,
			"byteOffset":0,
			"target":34962
		},
		{
			"buffer":0,
			"byteLength":824868,
			"byteOffset":824868,
			"target":34962
		},
		{
			"buffer":0,
			"byteLength":549912,
			"byteOffset":1649736,
			"target":34962
		},
		{
			"buffer":0,
			"byteLength":345516,
			"byteOffset":2199648,
			"target":34963
		},
		{
			"buffer":0,
			"byteLength":827028,
			"byteOffset":2545164,
			"target":34962
		},
		{
			"buffer":0,
			"byteLength":827028,
			"byteOffset":3372192,
			"target":34962
		},
		{
			"buffer":0,
			"byteLength":551352,
			"byteOffset":4199220,
			"target":34962
		},
		{
			"buffer":0,
			"byteLength":346824,
			"byteOffset":4750572,
			"target":34963
		},
		{
			"buffer":0,
			"byteLength":823380,
			"byteOffset":5097396,
			"target":34962
		},
		{
			"buffer":0,
			"byteLength":823380,
			"byteOffset":5920776,
			"target":34962
		},
		{
			"buffer":0,
			"byteLength":548920,
			"byteOffset":6744156,
			"target":34962
		},
		{
			"buffer":0,
			"byteLength":343572,
			"byteOffset":7293076,
			"target":34963
		},
		{
			"buffer":0,
			"byteLength":829632,
			"byteOffset":7636648,
			"target":34962
		},
		{
			"buffer":0,
			"byteLength":829632,
			"byteOffset":8466280,
			"target":34962
		},
		{
			"buffer":0,
			"byteLength":553088,
			"byteOffset":9295912,
			"target":34962
		},
		{
			"buffer":0,
			"byteLength":352008,
			"byteOffset":9849000,
			"target":34963
		},
		{
			"buffer":0,
			"byteLength":826992,
			"byteOffset":10201008,
			"target":34962
		},
		{
			"buffer":0,
			"byteLength":826992,
			"byteOffset":11028000,
			"target":34962
		},
		{
			"buffer":0,
			"byteLength":551328,
			"byteOffset":11854992,
			"target":34962
		},
		{
			"buffer":0,
			"byteLength":348828,
			"byteOffset":12406320,
			"target":34963
		},
		{
			"buffer":0,
			"byteLength":829752,
			"byteOffset":12755148,
			"target":34962
		},
		{
			"buffer":0,
			"byteLength":829752,
			"byteOffset":13584900,
			"target":34962
		},
		{
			"buffer":0,
			"byteLength":553168,
			"byteOffset":14414652,
			"target":34962
		},
		{
			"buffer":0,
			"byteLength":348348,
			"byteOffset":14967820,
			"target":34963
		},
		{
			"buffer":0,
			"byteLength":826848,
			"byteOffset":15316168,
			"target":34962
		},
		{
			"buffer":0,
			"byteLength":826848,
			"byteOffset":16143016,
			"target":34962
		},
		{
			"buffer":0,
			"byteLength":551232,
			"byteOffset":16969864,
			"target":34962
		},
		{
			"buffer":0,
			"byteLength":348624,
			"byteOffset":17521096,
			"target":34963
		},
		{
			"buffer":0,
			"byteLength":729816,
			"byteOffset":17869720,
			"target":34962
		},
		{
			"buffer":0,
			"byteLength":729816,
			"byteOffset":18599536,
			"target":34962
		},
		{
			"buffer":0,
			"byteLength":486544,
			"byteOffset":19329352,
			"target":34962
		},
		{
			"buffer":0,
			"byteLength":151182,
			"byteOffset":19815896,
			"target":34963
		}
	],
	"samplers":[
		{
			"magFilter":9729,
			"minFilter":9987
		}
	],
	"buffers":[
		{
			"byteLength":19967080,
			"uri":"scene.bin"
		}
	]
}
