{
	"asset":{
		"generator":"Khronos glTF Blender I/O v4.3.47",
		"version":"2.0"
	},
	"scene":0,
	"scenes":[
		{
			"name":"Scene",
			"nodes":[
				6
			]
		}
	],
	"nodes":[
		{
			"mesh":0,
			"name":"Object_4"
		},
		{
			"mesh":1,
			"name":"Object_5"
		},
		{
			"mesh":2,
			"name":"Object_6"
		},
		{
			"children":[
				0,
				1,
				2
			],
			"name":"tennis racquet_0"
		},
		{
			"children":[
				3
			],
			"name":"GLTF_SceneRootNode",
			"rotation":[
				0.70710688829422,
				0,
				0,
				0.7071066498756409
			]
		},
		{
			"children":[
				4
			],
			"name":"root"
		},
		{
			"children":[
				5
			],
			"name":"tennis racket",
			"rotation":[
				-0.70710688829422,
				0,
				0,
				0.7071066498756409
			],
			"scale":[
				0.07674943655729294,
				0.07674944400787354,
				0.07674944400787354
			]
		}
	],
	"materials":[
		{
			"doubleSided":true,
			"name":"tennis_racquet",
			"normalTexture":{
				"index":0
			},
			"pbrMetallicRoughness":{
				"baseColorTexture":{
					"index":1
				},
				"metallicFactor":0,
				"metallicRoughnessTexture":{
					"index":2
				}
			}
		},
		{
			"doubleSided":true,
			"name":"strings",
			"pbrMetallicRoughness":{
				"baseColorFactor":[
					0.6382719874382019,
					0.6382719874382019,
					0.6382719874382019,
					1
				],
				"metallicFactor":0,
				"roughnessFactor":0.1875
			}
		},
		{
			"doubleSided":true,
			"name":"dark",
			"pbrMetallicRoughness":{
				"baseColorFactor":[
					0,
					0,
					0,
					1
				],
				"metallicFactor":0
			}
		}
	],
	"meshes":[
		{
			"name":"Object_0",
			"primitives":[
				{
					"attributes":{
						"POSITION":0,
						"NORMAL":1,
						"TEXCOORD_0":2
					},
					"indices":3,
					"material":0
				}
			]
		},
		{
			"name":"Object_1",
			"primitives":[
				{
					"attributes":{
						"POSITION":4,
						"NORMAL":5,
						"TEXCOORD_0":6
					},
					"indices":7,
					"material":1
				}
			]
		},
		{
			"name":"Object_2",
			"primitives":[
				{
					"attributes":{
						"POSITION":8,
						"NORMAL":9,
						"TEXCOORD_0":10
					},
					"indices":11,
					"material":2
				}
			]
		}
	],
	"textures":[
		{
			"sampler":0,
			"source":0
		},
		{
			"sampler":0,
			"source":1
		},
		{
			"sampler":0,
			"source":2
		}
	],
	"images":[
		{
			"mimeType":"image/png",
			"name":"tennis_racquet_normal",
			"uri":"tennis_racquet_normal.png"
		},
		{
			"mimeType":"image/png",
			"name":"tennis_racquet_baseColor",
			"uri":"tennis_racquet_baseColor.png"
		},
		{
			"mimeType":"image/png",
			"name":"tennis_racquet_metallicRoughness",
			"uri":"tennis_racquet_metallicRoughness.png"
		}
	],
	"accessors":[
		{
			"bufferView":0,
			"componentType":5126,
			"count":6746,
			"max":[
				1.683629035949707,
				0.24893736839294434,
				4.435809135437012
			],
			"min":[
				-1.683629035949707,
				-0.24893736839294434,
				-4.43569803237915
			],
			"type":"VEC3"
		},
		{
			"bufferView":1,
			"componentType":5126,
			"count":6746,
			"type":"VEC3"
		},
		{
			"bufferView":2,
			"componentType":5126,
			"count":6746,
			"type":"VEC2"
		},
		{
			"bufferView":3,
			"componentType":5123,
			"count":26376,
			"type":"SCALAR"
		},
		{
			"bufferView":4,
			"componentType":5126,
			"count":3508,
			"max":[
				1.5395859479904175,
				0.027959110215306282,
				-0.10804324597120285
			],
			"min":[
				-1.5395857095718384,
				-0.028276214376091957,
				-4.276159286499023
			],
			"type":"VEC3"
		},
		{
			"bufferView":5,
			"componentType":5126,
			"count":3508,
			"type":"VEC3"
		},
		{
			"bufferView":6,
			"componentType":5126,
			"count":3508,
			"type":"VEC2"
		},
		{
			"bufferView":7,
			"componentType":5123,
			"count":15336,
			"type":"SCALAR"
		},
		{
			"bufferView":8,
			"componentType":5126,
			"count":912,
			"max":[
				1.5187404155731201,
				0.015363517217338085,
				-0.11502030491828918
			],
			"min":[
				-1.5187404155731201,
				-0.01536540500819683,
				-4.249851226806641
			],
			"type":"VEC3"
		},
		{
			"bufferView":9,
			"componentType":5126,
			"count":912,
			"type":"VEC3"
		},
		{
			"bufferView":10,
			"componentType":5126,
			"count":912,
			"type":"VEC2"
		},
		{
			"bufferView":11,
			"componentType":5123,
			"count":2280,
			"type":"SCALAR"
		}
	],
	"bufferViews":[
		{
			"buffer":0,
			"byteLength":80952,
			"byteOffset":0,
			"target":34962
		},
		{
			"buffer":0,
			"byteLength":80952,
			"byteOffset":80952,
			"target":34962
		},
		{
			"buffer":0,
			"byteLength":53968,
			"byteOffset":161904,
			"target":34962
		},
		{
			"buffer":0,
			"byteLength":52752,
			"byteOffset":215872,
			"target":34963
		},
		{
			"buffer":0,
			"byteLength":42096,
			"byteOffset":268624,
			"target":34962
		},
		{
			"buffer":0,
			"byteLength":42096,
			"byteOffset":310720,
			"target":34962
		},
		{
			"buffer":0,
			"byteLength":28064,
			"byteOffset":352816,
			"target":34962
		},
		{
			"buffer":0,
			"byteLength":30672,
			"byteOffset":380880,
			"target":34963
		},
		{
			"buffer":0,
			"byteLength":10944,
			"byteOffset":411552,
			"target":34962
		},
		{
			"buffer":0,
			"byteLength":10944,
			"byteOffset":422496,
			"target":34962
		},
		{
			"buffer":0,
			"byteLength":7296,
			"byteOffset":433440,
			"target":34962
		},
		{
			"buffer":0,
			"byteLength":4560,
			"byteOffset":440736,
			"target":34963
		}
	],
	"samplers":[
		{
			"magFilter":9729,
			"minFilter":9987
		}
	],
	"buffers":[
		{
			"byteLength":445296,
			"uri":"scene.bin"
		}
	]
}
