{
	"asset":{
		"generator":"Khronos glTF Blender I/O v4.3.47",
		"version":"2.0"
	},
	"extensionsUsed":[
		"KHR_materials_specular"
	],
	"scene":0,
	"scenes":[
		{
			"name":"Scene",
			"nodes":[
				6
			]
		}
	],
	"nodes":[
		{
			"mesh":0,
			"name":"Object_2"
		},
		{
			"mesh":1,
			"name":"Object_3"
		},
		{
			"mesh":2,
			"name":"Object_4"
		},
		{
			"mesh":3,
			"name":"Object_5"
		},
		{
			"mesh":4,
			"name":"Object_6"
		},
		{
			"children":[
				0,
				1,
				2,
				3,
				4
			],
			"name":"Stop Sign.obj.cleaner.materialmerger.gles"
		},
		{
			"children":[
				5
			],
			"name":"stop sign",
			"rotation":[
				-0.9999495148658752,
				0,
				0,
				0.010050084441900253
			],
			"scale":[
				0.009999999776482582,
				0.009999997913837433,
				0.009999997913837433
			]
		}
	],
	"materials":[
		{
			"doubleSided":true,
			"name":"wire_000000000",
			"pbrMetallicRoughness":{
				"metallicRoughnessTexture":{
					"index":0
				}
			}
		},
		{
			"doubleSided":true,
			"name":"wire_028028177",
			"pbrMetallicRoughness":{
				"baseColorFactor":[
					0.3187340199947357,
					0.31499752402305603,
					0.31499752402305603,
					1
				],
				"metallicFactor":0.8679999709129333,
				"metallicRoughnessTexture":{
					"index":1
				}
			}
		},
		{
			"doubleSided":true,
			"name":"wire_135006006",
			"pbrMetallicRoughness":{
				"baseColorFactor":[
					0.3171733617782593,
					0.3159247636795044,
					0.3159247636795044,
					1
				],
				"metallicFactor":0.8681367039680481,
				"metallicRoughnessTexture":{
					"index":2
				}
			}
		},
		{
			"doubleSided":true,
			"extensions":{
				"KHR_materials_specular":{
					"specularFactor":0.2061786651611328
				}
			},
			"name":"wire_138008110",
			"pbrMetallicRoughness":{
				"baseColorFactor":[
					0.6906154751777649,
					0.6906154751777649,
					0.6906154751777649,
					1
				],
				"metallicFactor":0.455172061920166,
				"metallicRoughnessTexture":{
					"index":3
				}
			}
		},
		{
			"doubleSided":true,
			"name":"wire_225143087",
			"pbrMetallicRoughness":{
				"baseColorTexture":{
					"index":4
				},
				"metallicFactor":0,
				"metallicRoughnessTexture":{
					"index":5
				}
			}
		}
	],
	"meshes":[
		{
			"name":"Object_0",
			"primitives":[
				{
					"attributes":{
						"POSITION":0,
						"NORMAL":1,
						"TEXCOORD_0":2
					},
					"indices":3,
					"material":0
				}
			]
		},
		{
			"name":"Object_1",
			"primitives":[
				{
					"attributes":{
						"POSITION":4,
						"NORMAL":5,
						"TEXCOORD_0":6
					},
					"indices":7,
					"material":1
				}
			]
		},
		{
			"name":"Object_2",
			"primitives":[
				{
					"attributes":{
						"POSITION":8,
						"NORMAL":9,
						"TEXCOORD_0":10
					},
					"indices":11,
					"material":2
				}
			]
		},
		{
			"name":"Object_3",
			"primitives":[
				{
					"attributes":{
						"POSITION":12,
						"NORMAL":13,
						"TEXCOORD_0":14
					},
					"indices":15,
					"material":3
				}
			]
		},
		{
			"name":"Object_4",
			"primitives":[
				{
					"attributes":{
						"POSITION":16,
						"NORMAL":17,
						"TEXCOORD_0":18
					},
					"indices":19,
					"material":4
				}
			]
		}
	],
	"textures":[
		{
			"sampler":0,
			"source":0
		},
		{
			"sampler":0,
			"source":0
		},
		{
			"sampler":0,
			"source":0
		},
		{
			"sampler":0,
			"source":0
		},
		{
			"sampler":0,
			"source":1
		},
		{
			"sampler":0,
			"source":0
		}
	],
	"images":[
		{
			"mimeType":"image/png",
			"name":"wire_000000000_metallicRoughness",
			"uri":"wire_000000000_metallicRoughness.png"
		},
		{
			"mimeType":"image/png",
			"name":"wire_225143087_baseColor",
			"uri":"wire_225143087_baseColor.png"
		}
	],
	"accessors":[
		{
			"bufferView":0,
			"componentType":5126,
			"count":8020,
			"max":[
				9.767900466918945,
				-16.276500701904297,
				257.3398132324219
			],
			"min":[
				6.883999824523926,
				-21.48819923400879,
				191.92770385742188
			],
			"type":"VEC3"
		},
		{
			"bufferView":1,
			"componentType":5126,
			"count":8020,
			"type":"VEC3"
		},
		{
			"bufferView":2,
			"componentType":5126,
			"count":8020,
			"type":"VEC2"
		},
		{
			"bufferView":3,
			"componentType":5123,
			"count":31080,
			"type":"SCALAR"
		},
		{
			"bufferView":4,
			"componentType":5126,
			"count":21,
			"max":[
				11.112799644470215,
				-16.383699417114258,
				264.2997131347656
			],
			"min":[
				5.639699935913086,
				-20.49650001525879,
				263.189208984375
			],
			"type":"VEC3"
		},
		{
			"bufferView":5,
			"componentType":5126,
			"count":21,
			"type":"VEC3"
		},
		{
			"bufferView":6,
			"componentType":5126,
			"count":21,
			"type":"VEC2"
		},
		{
			"bufferView":7,
			"componentType":5123,
			"count":36,
			"type":"SCALAR"
		},
		{
			"bufferView":8,
			"componentType":5126,
			"count":2609,
			"max":[
				11.204000473022461,
				-16.383699417114258,
				264.22430419921875
			],
			"min":[
				5.617499828338623,
				-20.49650001525879,
				-8.95680046081543
			],
			"type":"VEC3"
		},
		{
			"bufferView":9,
			"componentType":5126,
			"count":2609,
			"type":"VEC3"
		},
		{
			"bufferView":10,
			"componentType":5126,
			"count":2609,
			"type":"VEC2"
		},
		{
			"bufferView":11,
			"componentType":5123,
			"count":7284,
			"type":"SCALAR"
		},
		{
			"bufferView":12,
			"componentType":5126,
			"count":17,
			"max":[
				48.454498291015625,
				-20.48550033569336,
				264.47711181640625
			],
			"min":[
				-31.989599227905273,
				-20.555500030517578,
				184.0330047607422
			],
			"type":"VEC3"
		},
		{
			"bufferView":13,
			"componentType":5126,
			"count":17,
			"type":"VEC3"
		},
		{
			"bufferView":14,
			"componentType":5126,
			"count":17,
			"type":"VEC2"
		},
		{
			"bufferView":15,
			"componentType":5123,
			"count":72,
			"type":"SCALAR"
		},
		{
			"bufferView":16,
			"componentType":5126,
			"count":17,
			"max":[
				48.454498291015625,
				-20.555500030517578,
				264.47711181640625
			],
			"min":[
				-31.989599227905273,
				-20.625499725341797,
				184.0330047607422
			],
			"type":"VEC3"
		},
		{
			"bufferView":17,
			"componentType":5126,
			"count":17,
			"type":"VEC3"
		},
		{
			"bufferView":18,
			"componentType":5126,
			"count":17,
			"type":"VEC2"
		},
		{
			"bufferView":19,
			"componentType":5123,
			"count":72,
			"type":"SCALAR"
		}
	],
	"bufferViews":[
		{
			"buffer":0,
			"byteLength":96240,
			"byteOffset":0,
			"target":34962
		},
		{
			"buffer":0,
			"byteLength":96240,
			"byteOffset":96240,
			"target":34962
		},
		{
			"buffer":0,
			"byteLength":64160,
			"byteOffset":192480,
			"target":34962
		},
		{
			"buffer":0,
			"byteLength":62160,
			"byteOffset":256640,
			"target":34963
		},
		{
			"buffer":0,
			"byteLength":252,
			"byteOffset":318800,
			"target":34962
		},
		{
			"buffer":0,
			"byteLength":252,
			"byteOffset":319052,
			"target":34962
		},
		{
			"buffer":0,
			"byteLength":168,
			"byteOffset":319304,
			"target":34962
		},
		{
			"buffer":0,
			"byteLength":72,
			"byteOffset":319472,
			"target":34963
		},
		{
			"buffer":0,
			"byteLength":31308,
			"byteOffset":319544,
			"target":34962
		},
		{
			"buffer":0,
			"byteLength":31308,
			"byteOffset":350852,
			"target":34962
		},
		{
			"buffer":0,
			"byteLength":20872,
			"byteOffset":382160,
			"target":34962
		},
		{
			"buffer":0,
			"byteLength":14568,
			"byteOffset":403032,
			"target":34963
		},
		{
			"buffer":0,
			"byteLength":204,
			"byteOffset":417600,
			"target":34962
		},
		{
			"buffer":0,
			"byteLength":204,
			"byteOffset":417804,
			"target":34962
		},
		{
			"buffer":0,
			"byteLength":136,
			"byteOffset":418008,
			"target":34962
		},
		{
			"buffer":0,
			"byteLength":144,
			"byteOffset":418144,
			"target":34963
		},
		{
			"buffer":0,
			"byteLength":204,
			"byteOffset":418288,
			"target":34962
		},
		{
			"buffer":0,
			"byteLength":204,
			"byteOffset":418492,
			"target":34962
		},
		{
			"buffer":0,
			"byteLength":136,
			"byteOffset":418696,
			"target":34962
		},
		{
			"buffer":0,
			"byteLength":144,
			"byteOffset":418832,
			"target":34963
		}
	],
	"samplers":[
		{
			"magFilter":9729,
			"minFilter":9987
		}
	],
	"buffers":[
		{
			"byteLength":418976,
			"uri":"untitled.bin"
		}
	]
}
