{
	"asset":{
		"generator":"Khronos glTF Blender I/O v4.3.47",
		"version":"2.0"
	},
	"extensionsUsed":[
		"KHR_materials_clearcoat"
	],
	"scene":0,
	"scenes":[
		{
			"name":"Scene",
			"nodes":[
				16
			]
		}
	],
	"nodes":[
		{
			"name":"Object_16"
		},
		{
			"children":[
				0
			],
			"name":"Camera.001",
			"rotation":[
				-0.009294097311794758,
				0.858427107334137,
				-0.005552332848310471,
				0.5128213167190552
			],
			"scale":[
				100.00000762939453,
				99.9999771118164,
				100
			],
			"translation":[
				273.0709228515625,
				103.03656005859375,
				503.05511474609375
			]
		},
		{
			"mesh":0,
			"name":"Ski_L_Bindings_0"
		},
		{
			"mesh":1,
			"name":"Ski_L_Core_0"
		},
		{
			"mesh":2,
			"name":"Ski_L_Metal_0"
		},
		{
			"mesh":3,
			"name":"Ski_L_Orange_0"
		},
		{
			"mesh":4,
			"name":"Ski_L_White_0"
		},
		{
			"children":[
				2,
				3,
				4,
				5,
				6
			],
			"name":"Ski_L",
			"rotation":[
				-0.7369406819343567,
				-0.014468856155872345,
				-0.022246291860938072,
				0.6754363775253296
			],
			"scale":[
				99.99999237060547,
				100.00000762939453,
				100.0000228881836
			],
			"translation":[
				-12.5,
				93,
				0
			]
		},
		{
			"mesh":5,
			"name":"Ski_R_Bindings_0"
		},
		{
			"mesh":6,
			"name":"Ski_R_Core_0"
		},
		{
			"mesh":7,
			"name":"Ski_R_Metal_0"
		},
		{
			"mesh":8,
			"name":"Ski_R_Orange_0"
		},
		{
			"mesh":9,
			"name":"Ski_R_White_0"
		},
		{
			"children":[
				8,
				9,
				10,
				11,
				12
			],
			"name":"Ski_R",
			"rotation":[
				-0.7371066808700562,
				0.00857408344745636,
				0.015814512968063354,
				0.6755369901657104
			],
			"scale":[
				99.9999771118164,
				100.00000762939453,
				99.99999237060547
			],
			"translation":[
				12.5,
				93,
				0
			]
		},
		{
			"children":[
				1,
				7,
				13
			],
			"name":"RootNode"
		},
		{
			"children":[
				14
			],
			"name":"Skis.fbx",
			"rotation":[
				0.70710688829422,
				0,
				0,
				0.7071066498756409
			],
			"scale":[
				0.009999999776482582,
				0.010000000707805157,
				0.010000000707805157
			]
		},
		{
			"children":[
				15
			],
			"name":"skis",
			"rotation":[
				1,
				0,
				0,
				4.371138828673793e-08
			]
		}
	],
	"materials":[
		{
			"doubleSided":true,
			"name":"Bindings",
			"pbrMetallicRoughness":{
				"baseColorFactor":[
					0.02861589938402176,
					0.02861589938402176,
					0.02861589938402176,
					1
				],
				"metallicFactor":0,
				"roughnessFactor":0.5
			}
		},
		{
			"doubleSided":true,
			"name":"Core",
			"pbrMetallicRoughness":{
				"baseColorFactor":[
					0.09476400166749954,
					0.35708698630332947,
					0.057885900139808655,
					1
				],
				"metallicFactor":0,
				"roughnessFactor":0.5799999833106995
			}
		},
		{
			"doubleSided":true,
			"name":"Metal",
			"pbrMetallicRoughness":{
				"baseColorFactor":[
					0.699402391910553,
					0.699402391910553,
					0.699402391910553,
					1
				],
				"roughnessFactor":0.550000011920929
			}
		},
		{
			"doubleSided":true,
			"extensions":{
				"KHR_materials_clearcoat":{
					"clearcoatFactor":1,
					"clearcoatRoughnessFactor":0.44999998807907104
				}
			},
			"name":"Orange",
			"pbrMetallicRoughness":{
				"baseColorFactor":[
					0.7494345307350159,
					0.16225163638591766,
					0.012845857068896294,
					1
				],
				"metallicFactor":0,
				"roughnessFactor":0.6499999761581421
			}
		},
		{
			"doubleSided":true,
			"extensions":{
				"KHR_materials_clearcoat":{
					"clearcoatFactor":1,
					"clearcoatRoughnessFactor":0.20000000298023224
				}
			},
			"name":"White",
			"pbrMetallicRoughness":{
				"baseColorFactor":[
					0.9529410004615784,
					0.9529410004615784,
					0.9529410004615784,
					1
				],
				"metallicFactor":0,
				"roughnessFactor":0
			}
		}
	],
	"meshes":[
		{
			"name":"Ski_L_Bindings_0",
			"primitives":[
				{
					"attributes":{
						"POSITION":0,
						"NORMAL":1,
						"TEXCOORD_0":2
					},
					"indices":3,
					"material":0
				}
			]
		},
		{
			"name":"Ski_L_Core_0",
			"primitives":[
				{
					"attributes":{
						"POSITION":4,
						"NORMAL":5,
						"TEXCOORD_0":6
					},
					"indices":7,
					"material":1
				}
			]
		},
		{
			"name":"Ski_L_Metal_0",
			"primitives":[
				{
					"attributes":{
						"POSITION":8,
						"NORMAL":9,
						"TEXCOORD_0":10
					},
					"indices":11,
					"material":2
				}
			]
		},
		{
			"name":"Ski_L_Orange_0",
			"primitives":[
				{
					"attributes":{
						"POSITION":12,
						"NORMAL":13,
						"TEXCOORD_0":14
					},
					"indices":15,
					"material":3
				}
			]
		},
		{
			"name":"Ski_L_White_0",
			"primitives":[
				{
					"attributes":{
						"POSITION":16,
						"NORMAL":17,
						"TEXCOORD_0":18
					},
					"indices":19,
					"material":4
				}
			]
		},
		{
			"name":"Ski_R_Bindings_0",
			"primitives":[
				{
					"attributes":{
						"POSITION":20,
						"NORMAL":21,
						"TEXCOORD_0":22
					},
					"indices":3,
					"material":0
				}
			]
		},
		{
			"name":"Ski_R_Core_0",
			"primitives":[
				{
					"attributes":{
						"POSITION":23,
						"NORMAL":24,
						"TEXCOORD_0":25
					},
					"indices":7,
					"material":1
				}
			]
		},
		{
			"name":"Ski_R_Metal_0",
			"primitives":[
				{
					"attributes":{
						"POSITION":26,
						"NORMAL":27,
						"TEXCOORD_0":28
					},
					"indices":11,
					"material":2
				}
			]
		},
		{
			"name":"Ski_R_Orange_0",
			"primitives":[
				{
					"attributes":{
						"POSITION":29,
						"NORMAL":30,
						"TEXCOORD_0":31
					},
					"indices":15,
					"material":3
				}
			]
		},
		{
			"name":"Ski_R_White_0",
			"primitives":[
				{
					"attributes":{
						"POSITION":32,
						"NORMAL":33,
						"TEXCOORD_0":34
					},
					"indices":19,
					"material":4
				}
			]
		}
	],
	"accessors":[
		{
			"bufferView":0,
			"componentType":5126,
			"count":1070,
			"max":[
				0.07231024652719498,
				-0.005974212195724249,
				0.17218932509422302
			],
			"min":[
				-0.07298148423433304,
				-0.07330318540334702,
				-0.34208816289901733
			],
			"type":"VEC3"
		},
		{
			"bufferView":1,
			"componentType":5126,
			"count":1070,
			"type":"VEC3"
		},
		{
			"bufferView":2,
			"componentType":5126,
			"count":1070,
			"type":"VEC2"
		},
		{
			"bufferView":3,
			"componentType":5123,
			"count":1842,
			"type":"SCALAR"
		},
		{
			"bufferView":4,
			"componentType":5126,
			"count":114,
			"max":[
				0.07281582802534103,
				-0.0013078447664156556,
				0.9237841963768005
			],
			"min":[
				-0.07281584292650223,
				-0.07163970917463303,
				-0.9275144338607788
			],
			"type":"VEC3"
		},
		{
			"bufferView":5,
			"componentType":5126,
			"count":114,
			"type":"VEC3"
		},
		{
			"bufferView":6,
			"componentType":5126,
			"count":114,
			"type":"VEC2"
		},
		{
			"bufferView":7,
			"componentType":5123,
			"count":240,
			"type":"SCALAR"
		},
		{
			"bufferView":8,
			"componentType":5126,
			"count":394,
			"max":[
				0.07281582802534103,
				0.0019131748704239726,
				0.9261842370033264
			],
			"min":[
				-0.07281584292650223,
				-0.07330318540334702,
				-0.9298210740089417
			],
			"type":"VEC3"
		},
		{
			"bufferView":9,
			"componentType":5126,
			"count":394,
			"type":"VEC3"
		},
		{
			"bufferView":10,
			"componentType":5126,
			"count":394,
			"type":"VEC2"
		},
		{
			"bufferView":11,
			"componentType":5123,
			"count":834,
			"type":"SCALAR"
		},
		{
			"bufferView":12,
			"componentType":5126,
			"count":63,
			"max":[
				0.07281582802534103,
				0.00023017500643618405,
				0.9229463338851929
			],
			"min":[
				-0.07281584292650223,
				-0.07163970917463303,
				-0.9272415637969971
			],
			"type":"VEC3"
		},
		{
			"bufferView":13,
			"componentType":5126,
			"count":63,
			"type":"VEC3"
		},
		{
			"bufferView":14,
			"componentType":5126,
			"count":63,
			"type":"VEC2"
		},
		{
			"bufferView":15,
			"componentType":5123,
			"count":216,
			"type":"SCALAR"
		},
		{
			"bufferView":16,
			"componentType":5126,
			"count":63,
			"max":[
				0.06902216374874115,
				0.001912364037707448,
				0.9226056933403015
			],
			"min":[
				-0.06902217864990234,
				-0.0657801553606987,
				-0.9263948798179626
			],
			"type":"VEC3"
		},
		{
			"bufferView":17,
			"componentType":5126,
			"count":63,
			"type":"VEC3"
		},
		{
			"bufferView":18,
			"componentType":5126,
			"count":63,
			"type":"VEC2"
		},
		{
			"bufferView":19,
			"componentType":5123,
			"count":216,
			"type":"SCALAR"
		},
		{
			"bufferView":20,
			"componentType":5126,
			"count":1070,
			"max":[
				0.07231024652719498,
				-0.005974212195724249,
				0.17218932509422302
			],
			"min":[
				-0.07298148423433304,
				-0.07330318540334702,
				-0.34208816289901733
			],
			"type":"VEC3"
		},
		{
			"bufferView":21,
			"componentType":5126,
			"count":1070,
			"type":"VEC3"
		},
		{
			"bufferView":22,
			"componentType":5126,
			"count":1070,
			"type":"VEC2"
		},
		{
			"bufferView":23,
			"componentType":5126,
			"count":114,
			"max":[
				0.07281582802534103,
				-0.0013078447664156556,
				0.9237841963768005
			],
			"min":[
				-0.07281584292650223,
				-0.07163970917463303,
				-0.9275144338607788
			],
			"type":"VEC3"
		},
		{
			"bufferView":24,
			"componentType":5126,
			"count":114,
			"type":"VEC3"
		},
		{
			"bufferView":25,
			"componentType":5126,
			"count":114,
			"type":"VEC2"
		},
		{
			"bufferView":26,
			"componentType":5126,
			"count":394,
			"max":[
				0.07281582802534103,
				0.0019131748704239726,
				0.9261842370033264
			],
			"min":[
				-0.07281584292650223,
				-0.07330318540334702,
				-0.9298210740089417
			],
			"type":"VEC3"
		},
		{
			"bufferView":27,
			"componentType":5126,
			"count":394,
			"type":"VEC3"
		},
		{
			"bufferView":28,
			"componentType":5126,
			"count":394,
			"type":"VEC2"
		},
		{
			"bufferView":29,
			"componentType":5126,
			"count":63,
			"max":[
				0.07281582802534103,
				0.00023017500643618405,
				0.9229463338851929
			],
			"min":[
				-0.07281584292650223,
				-0.07163970917463303,
				-0.9272415637969971
			],
			"type":"VEC3"
		},
		{
			"bufferView":30,
			"componentType":5126,
			"count":63,
			"type":"VEC3"
		},
		{
			"bufferView":31,
			"componentType":5126,
			"count":63,
			"type":"VEC2"
		},
		{
			"bufferView":32,
			"componentType":5126,
			"count":63,
			"max":[
				0.06902216374874115,
				0.001912364037707448,
				0.9226056933403015
			],
			"min":[
				-0.06902217864990234,
				-0.0657801553606987,
				-0.9263948798179626
			],
			"type":"VEC3"
		},
		{
			"bufferView":33,
			"componentType":5126,
			"count":63,
			"type":"VEC3"
		},
		{
			"bufferView":34,
			"componentType":5126,
			"count":63,
			"type":"VEC2"
		}
	],
	"bufferViews":[
		{
			"buffer":0,
			"byteLength":12840,
			"byteOffset":0,
			"target":34962
		},
		{
			"buffer":0,
			"byteLength":12840,
			"byteOffset":12840,
			"target":34962
		},
		{
			"buffer":0,
			"byteLength":8560,
			"byteOffset":25680,
			"target":34962
		},
		{
			"buffer":0,
			"byteLength":3684,
			"byteOffset":34240,
			"target":34963
		},
		{
			"buffer":0,
			"byteLength":1368,
			"byteOffset":37924,
			"target":34962
		},
		{
			"buffer":0,
			"byteLength":1368,
			"byteOffset":39292,
			"target":34962
		},
		{
			"buffer":0,
			"byteLength":912,
			"byteOffset":40660,
			"target":34962
		},
		{
			"buffer":0,
			"byteLength":480,
			"byteOffset":41572,
			"target":34963
		},
		{
			"buffer":0,
			"byteLength":4728,
			"byteOffset":42052,
			"target":34962
		},
		{
			"buffer":0,
			"byteLength":4728,
			"byteOffset":46780,
			"target":34962
		},
		{
			"buffer":0,
			"byteLength":3152,
			"byteOffset":51508,
			"target":34962
		},
		{
			"buffer":0,
			"byteLength":1668,
			"byteOffset":54660,
			"target":34963
		},
		{
			"buffer":0,
			"byteLength":756,
			"byteOffset":56328,
			"target":34962
		},
		{
			"buffer":0,
			"byteLength":756,
			"byteOffset":57084,
			"target":34962
		},
		{
			"buffer":0,
			"byteLength":504,
			"byteOffset":57840,
			"target":34962
		},
		{
			"buffer":0,
			"byteLength":432,
			"byteOffset":58344,
			"target":34963
		},
		{
			"buffer":0,
			"byteLength":756,
			"byteOffset":58776,
			"target":34962
		},
		{
			"buffer":0,
			"byteLength":756,
			"byteOffset":59532,
			"target":34962
		},
		{
			"buffer":0,
			"byteLength":504,
			"byteOffset":60288,
			"target":34962
		},
		{
			"buffer":0,
			"byteLength":432,
			"byteOffset":60792,
			"target":34963
		},
		{
			"buffer":0,
			"byteLength":12840,
			"byteOffset":61224,
			"target":34962
		},
		{
			"buffer":0,
			"byteLength":12840,
			"byteOffset":74064,
			"target":34962
		},
		{
			"buffer":0,
			"byteLength":8560,
			"byteOffset":86904,
			"target":34962
		},
		{
			"buffer":0,
			"byteLength":1368,
			"byteOffset":95464,
			"target":34962
		},
		{
			"buffer":0,
			"byteLength":1368,
			"byteOffset":96832,
			"target":34962
		},
		{
			"buffer":0,
			"byteLength":912,
			"byteOffset":98200,
			"target":34962
		},
		{
			"buffer":0,
			"byteLength":4728,
			"byteOffset":99112,
			"target":34962
		},
		{
			"buffer":0,
			"byteLength":4728,
			"byteOffset":103840,
			"target":34962
		},
		{
			"buffer":0,
			"byteLength":3152,
			"byteOffset":108568,
			"target":34962
		},
		{
			"buffer":0,
			"byteLength":756,
			"byteOffset":111720,
			"target":34962
		},
		{
			"buffer":0,
			"byteLength":756,
			"byteOffset":112476,
			"target":34962
		},
		{
			"buffer":0,
			"byteLength":504,
			"byteOffset":113232,
			"target":34962
		},
		{
			"buffer":0,
			"byteLength":756,
			"byteOffset":113736,
			"target":34962
		},
		{
			"buffer":0,
			"byteLength":756,
			"byteOffset":114492,
			"target":34962
		},
		{
			"buffer":0,
			"byteLength":504,
			"byteOffset":115248,
			"target":34962
		}
	],
	"buffers":[
		{
			"byteLength":115752,
			"uri":"scene.bin"
		}
	]
}
