{
	"asset":{
		"generator":"Khronos glTF Blender I/O v4.3.47",
		"version":"2.0"
	},
	"scene":0,
	"scenes":[
		{
			"name":"Scene",
			"nodes":[
				25
			]
		}
	],
	"nodes":[
		{
			"mesh":0,
			"name":"Cone_0"
		},
		{
			"children":[
				0
			],
			"name":"Cone",
			"rotation":[
				0,
				-0.7071068286895752,
				0,
				0.7071067094802856
			],
			"scale":[
				1.2985200881958008,
				1.2985199689865112,
				1.5362802743911743
			],
			"translation":[
				-9.848420143127441,
				0.06414999812841415,
				1.6480200290679932
			]
		},
		{
			"mesh":1,
			"name":"Cube.001_0"
		},
		{
			"mesh":2,
			"name":"Cube.001_1"
		},
		{
			"children":[
				2,
				3
			],
			"name":"Cube.001",
			"rotation":[
				0.9994583129882812,
				0.014321343041956425,
				-0.023209618404507637,
				0.018420113250613213
			],
			"scale":[
				0.2099422663450241,
				0.20993858575820923,
				0.20993870496749878
			],
			"translation":[
				-8.966460227966309,
				-0.004129999782890081,
				-0.5024499893188477
			]
		},
		{
			"name":"Lamp.001",
			"translation":[
				0,
				0,
				2.1457672119140625e-06
			]
		},
		{
			"children":[
				5
			],
			"name":"Lamp.003",
			"rotation":[
				-0.3982219994068146,
				-0.2575031518936157,
				0.8648224472999573,
				0.16490453481674194
			],
			"scale":[
				0.9999942183494568,
				1.000004529953003,
				1
			],
			"translation":[
				-28.626440048217773,
				-12.016779899597168,
				14.525179862976074
			]
		},
		{
			"mesh":3,
			"name":"Plane_0"
		},
		{
			"mesh":4,
			"name":"Plane_1"
		},
		{
			"mesh":5,
			"name":"Plane_2"
		},
		{
			"mesh":6,
			"name":"Plane_3"
		},
		{
			"mesh":7,
			"name":"Plane_4"
		},
		{
			"children":[
				7,
				8,
				9,
				10,
				11
			],
			"name":"Plane",
			"rotation":[
				0.70710688829422,
				0,
				0,
				0.7071066498756409
			],
			"scale":[
				0.6876800060272217,
				0.6876800656318665,
				0.6876800656318665
			],
			"translation":[
				1.7928199768066406,
				0.047279998660087585,
				-0.8275899887084961
			]
		},
		{
			"mesh":8,
			"name":"Plane.001_0"
		},
		{
			"children":[
				13
			],
			"name":"Plane.001",
			"rotation":[
				0.70710688829422,
				0,
				0,
				0.7071066498756409
			],
			"scale":[
				0.6876800060272217,
				0.6876800656318665,
				0.6876800656318665
			],
			"translation":[
				2.032560110092163,
				0.047279998660087585,
				-0.9182100296020508
			]
		},
		{
			"mesh":9,
			"name":"Plane.002_0"
		},
		{
			"mesh":10,
			"name":"Plane.002_1"
		},
		{
			"children":[
				15,
				16
			],
			"name":"Plane.002",
			"rotation":[
				0.70710688829422,
				0,
				0,
				0.7071066498756409
			],
			"scale":[
				0.6876800060272217,
				0.6876800656318665,
				0.6876800656318665
			],
			"translation":[
				1.832550048828125,
				0.047279998660087585,
				-0.7580599784851074
			]
		},
		{
			"mesh":11,
			"name":"Plane.003_0"
		},
		{
			"children":[
				18
			],
			"name":"Plane.003",
			"rotation":[
				0.70710688829422,
				0,
				0,
				0.7071066498756409
			],
			"scale":[
				0.6876800060272217,
				0.6876800656318665,
				0.6876800656318665
			],
			"translation":[
				1.7928199768066406,
				3.0327401161193848,
				-0.8445500135421753
			]
		},
		{
			"mesh":12,
			"name":"Plane.004_0"
		},
		{
			"children":[
				20
			],
			"name":"Plane.004",
			"rotation":[
				0.70710688829422,
				0,
				0,
				0.7071066498756409
			],
			"scale":[
				0.6589300036430359,
				0.6589300632476807,
				0.6589300632476807
			],
			"translation":[
				1.5030299425125122,
				0.06988000124692917,
				-0.8055400252342224
			]
		},
		{
			"name":"Point.001"
		},
		{
			"children":[
				22
			],
			"name":"Point",
			"translation":[
				-7.217589855194092,
				5.338109970092773,
				1.7241699695587158
			]
		},
		{
			"children":[
				1,
				4,
				6,
				12,
				14,
				17,
				19,
				21,
				23
			],
			"name":"Root"
		},
		{
			"children":[
				24
			],
			"name":"airplane",
			"rotation":[
				-0.70710688829422,
				0,
				0,
				0.7071066498756409
			],
			"scale":[
				0.5,
				0.5000000596046448,
				0.5000000596046448
			]
		}
	],
	"materials":[
		{
			"doubleSided":true,
			"name":"Material.014",
			"pbrMetallicRoughness":{
				"baseColorTexture":{
					"index":0
				},
				"metallicFactor":0,
				"roughnessFactor":0.6000000238418579
			}
		},
		{
			"doubleSided":true,
			"name":"Material.008",
			"pbrMetallicRoughness":{
				"baseColorFactor":[
					0.044895049184560776,
					0.044895049184560776,
					0.044895049184560776,
					1
				],
				"metallicFactor":0,
				"roughnessFactor":0.6000000238418579
			}
		},
		{
			"doubleSided":true,
			"name":"Material.009",
			"pbrMetallicRoughness":{
				"metallicFactor":0,
				"roughnessFactor":0.6000000238418579
			}
		},
		{
			"doubleSided":true,
			"name":"Material.001",
			"pbrMetallicRoughness":{
				"baseColorTexture":{
					"index":1
				},
				"metallicFactor":0,
				"roughnessFactor":0.6000000238418579
			}
		},
		{
			"doubleSided":true,
			"name":"Material.005",
			"pbrMetallicRoughness":{
				"baseColorFactor":[
					0.018704943358898163,
					0.018704943358898163,
					0.018704943358898163,
					1
				],
				"metallicFactor":0,
				"roughnessFactor":0.6000000238418579
			}
		},
		{
			"doubleSided":true,
			"name":"Material.006",
			"pbrMetallicRoughness":{
				"metallicFactor":0,
				"roughnessFactor":0.6000000238418579
			}
		},
		{
			"doubleSided":true,
			"name":"Material.011",
			"pbrMetallicRoughness":{
				"baseColorTexture":{
					"index":2
				},
				"metallicFactor":0,
				"roughnessFactor":0.6000000238418579
			}
		},
		{
			"doubleSided":true,
			"name":"Material.013",
			"pbrMetallicRoughness":{
				"baseColorFactor":[
					0,
					0,
					0,
					1
				],
				"metallicFactor":0,
				"roughnessFactor":0.6000000238418579
			}
		},
		{
			"doubleSided":true,
			"name":"Material.002",
			"pbrMetallicRoughness":{
				"baseColorTexture":{
					"index":3
				},
				"metallicFactor":0,
				"roughnessFactor":0.6000000238418579
			}
		},
		{
			"doubleSided":true,
			"name":"Material.004",
			"pbrMetallicRoughness":{
				"baseColorFactor":[
					0.01850022003054619,
					0.01850022003054619,
					0.01850022003054619,
					1
				],
				"metallicFactor":0,
				"roughnessFactor":0.6000000238418579
			}
		},
		{
			"doubleSided":true,
			"name":"Material.007",
			"pbrMetallicRoughness":{
				"metallicFactor":0,
				"roughnessFactor":0.6000000238418579
			}
		},
		{
			"doubleSided":true,
			"name":"Material.003",
			"pbrMetallicRoughness":{
				"baseColorTexture":{
					"index":4
				},
				"metallicFactor":0,
				"roughnessFactor":0.6000000238418579
			}
		},
		{
			"doubleSided":true,
			"name":"Material.010",
			"pbrMetallicRoughness":{
				"baseColorFactor":[
					0,
					0,
					0,
					1
				],
				"metallicFactor":0,
				"roughnessFactor":0.6000000238418579
			}
		}
	],
	"meshes":[
		{
			"name":"Cone_0",
			"primitives":[
				{
					"attributes":{
						"POSITION":0,
						"NORMAL":1,
						"TEXCOORD_0":2
					},
					"indices":3,
					"material":0
				}
			]
		},
		{
			"name":"Cube.001_0",
			"primitives":[
				{
					"attributes":{
						"POSITION":4,
						"NORMAL":5
					},
					"indices":6,
					"material":1
				}
			]
		},
		{
			"name":"Cube.001_1",
			"primitives":[
				{
					"attributes":{
						"POSITION":7,
						"NORMAL":8
					},
					"indices":9,
					"material":2
				}
			]
		},
		{
			"name":"Plane_0",
			"primitives":[
				{
					"attributes":{
						"POSITION":10,
						"NORMAL":11,
						"TEXCOORD_0":12
					},
					"indices":13,
					"material":3
				}
			]
		},
		{
			"name":"Plane_1",
			"primitives":[
				{
					"attributes":{
						"POSITION":14,
						"NORMAL":15,
						"TEXCOORD_0":16
					},
					"indices":17,
					"material":4
				}
			]
		},
		{
			"name":"Plane_2",
			"primitives":[
				{
					"attributes":{
						"POSITION":18,
						"NORMAL":19,
						"TEXCOORD_0":20
					},
					"indices":21,
					"material":5
				}
			]
		},
		{
			"name":"Plane_3",
			"primitives":[
				{
					"attributes":{
						"POSITION":22,
						"NORMAL":23,
						"TEXCOORD_0":24
					},
					"indices":25,
					"material":6
				}
			]
		},
		{
			"name":"Plane_4",
			"primitives":[
				{
					"attributes":{
						"POSITION":26,
						"NORMAL":27,
						"TEXCOORD_0":28
					},
					"indices":29,
					"material":7
				}
			]
		},
		{
			"name":"Plane.001_0",
			"primitives":[
				{
					"attributes":{
						"POSITION":30,
						"NORMAL":31,
						"TEXCOORD_0":32
					},
					"indices":33,
					"material":8
				}
			]
		},
		{
			"name":"Plane.002_0",
			"primitives":[
				{
					"attributes":{
						"POSITION":34,
						"NORMAL":35
					},
					"indices":36,
					"material":9
				}
			]
		},
		{
			"name":"Plane.002_1",
			"primitives":[
				{
					"attributes":{
						"POSITION":37,
						"NORMAL":38
					},
					"indices":39,
					"material":10
				}
			]
		},
		{
			"name":"Plane.003_0",
			"primitives":[
				{
					"attributes":{
						"POSITION":40,
						"NORMAL":41,
						"TEXCOORD_0":42
					},
					"indices":43,
					"material":11
				}
			]
		},
		{
			"name":"Plane.004_0",
			"primitives":[
				{
					"attributes":{
						"POSITION":44,
						"NORMAL":45
					},
					"indices":46,
					"material":12
				}
			]
		}
	],
	"textures":[
		{
			"sampler":0,
			"source":0
		},
		{
			"sampler":0,
			"source":1
		},
		{
			"sampler":0,
			"source":0
		},
		{
			"sampler":0,
			"source":2
		},
		{
			"sampler":0,
			"source":0
		}
	],
	"images":[
		{
			"mimeType":"image/png",
			"name":"Material.014_baseColor",
			"uri":"Material_014_baseColor.png"
		},
		{
			"mimeType":"image/png",
			"name":"Material_baseColor",
			"uri":"Material_baseColor.png"
		},
		{
			"mimeType":"image/png",
			"name":"Material.002_baseColor",
			"uri":"Material_002_baseColor.png"
		}
	],
	"accessors":[
		{
			"bufferView":0,
			"componentType":5126,
			"count":597,
			"max":[
				-1.3109099864959717,
				0.33761999011039734,
				-0.17699000239372253
			],
			"min":[
				-1.9861500263214111,
				-0.33761999011039734,
				-0.7678300142288208
			],
			"type":"VEC3"
		},
		{
			"bufferView":1,
			"componentType":5126,
			"count":597,
			"type":"VEC3"
		},
		{
			"bufferView":2,
			"componentType":5126,
			"count":597,
			"type":"VEC2"
		},
		{
			"bufferView":3,
			"componentType":5123,
			"count":2292,
			"type":"SCALAR"
		},
		{
			"bufferView":4,
			"componentType":5126,
			"count":733,
			"max":[
				0.7692400217056274,
				7.992459774017334,
				5.9021100997924805
			],
			"min":[
				-0.7023699879646301,
				-8.996430397033691,
				-5.905330181121826
			],
			"type":"VEC3"
		},
		{
			"bufferView":5,
			"componentType":5126,
			"count":733,
			"type":"VEC3"
		},
		{
			"bufferView":6,
			"componentType":5123,
			"count":4200,
			"type":"SCALAR"
		},
		{
			"bufferView":7,
			"componentType":5126,
			"count":87,
			"max":[
				0.7571899890899658,
				6.675069808959961,
				5.672669887542725
			],
			"min":[
				-0.665690004825592,
				-8.323980331420898,
				-5.35899019241333
			],
			"type":"VEC3"
		},
		{
			"bufferView":8,
			"componentType":5126,
			"count":87,
			"type":"VEC3"
		},
		{
			"bufferView":9,
			"componentType":5123,
			"count":312,
			"type":"SCALAR"
		},
		{
			"bufferView":10,
			"componentType":5126,
			"count":12654,
			"max":[
				9.883330345153809,
				3.068389892578125,
				9.257530212402344
			],
			"min":[
				-15.477950096130371,
				-3.3269600868225098,
				-9.257530212402344
			],
			"type":"VEC3"
		},
		{
			"bufferView":11,
			"componentType":5126,
			"count":12654,
			"type":"VEC3"
		},
		{
			"bufferView":12,
			"componentType":5126,
			"count":12654,
			"type":"VEC2"
		},
		{
			"bufferView":13,
			"componentType":5123,
			"count":71232,
			"type":"SCALAR"
		},
		{
			"bufferView":14,
			"componentType":5126,
			"count":5071,
			"max":[
				-6.737380027770996,
				-2.527679920196533,
				4.687819957733154
			],
			"min":[
				-8.082440376281738,
				-3.872730016708374,
				-4.687819957733154
			],
			"type":"VEC3"
		},
		{
			"bufferView":15,
			"componentType":5126,
			"count":5071,
			"type":"VEC3"
		},
		{
			"bufferView":16,
			"componentType":5126,
			"count":5071,
			"type":"VEC2"
		},
		{
			"bufferView":17,
			"componentType":5123,
			"count":28860,
			"type":"SCALAR"
		},
		{
			"bufferView":18,
			"componentType":5126,
			"count":5380,
			"max":[
				-7.097149848937988,
				-2.897049903869629,
				4.62923002243042
			],
			"min":[
				-7.712560176849365,
				-3.50314998626709,
				-4.62923002243042
			],
			"type":"VEC3"
		},
		{
			"bufferView":19,
			"componentType":5126,
			"count":5380,
			"type":"VEC3"
		},
		{
			"bufferView":20,
			"componentType":5126,
			"count":5380,
			"type":"VEC2"
		},
		{
			"bufferView":21,
			"componentType":5123,
			"count":31104,
			"type":"SCALAR"
		},
		{
			"bufferView":22,
			"componentType":5126,
			"count":1285,
			"max":[
				11.456620216369629,
				5.317880153656006,
				0.18647000193595886
			],
			"min":[
				-1.2126799821853638,
				0.5552200078964233,
				-0.18647000193595886
			],
			"type":"VEC3"
		},
		{
			"bufferView":23,
			"componentType":5126,
			"count":1285,
			"type":"VEC3"
		},
		{
			"bufferView":24,
			"componentType":5126,
			"count":1285,
			"type":"VEC2"
		},
		{
			"bufferView":25,
			"componentType":5123,
			"count":6480,
			"type":"SCALAR"
		},
		{
			"bufferView":26,
			"componentType":5126,
			"count":548,
			"max":[
				-2.513659954071045,
				2.0813100337982178,
				1.958340048789978
			],
			"min":[
				-9.180939674377441,
				0.8247500061988831,
				-1.958340048789978
			],
			"type":"VEC3"
		},
		{
			"bufferView":27,
			"componentType":5126,
			"count":548,
			"type":"VEC3"
		},
		{
			"bufferView":28,
			"componentType":5126,
			"count":548,
			"type":"VEC2"
		},
		{
			"bufferView":29,
			"componentType":5123,
			"count":2076,
			"type":"SCALAR"
		},
		{
			"bufferView":30,
			"componentType":5126,
			"count":11312,
			"max":[
				-4.05797004699707,
				3.8022000789642334,
				19.158870697021484
			],
			"min":[
				-10.211919784545898,
				2.161449909210205,
				-19.158870697021484
			],
			"type":"VEC3"
		},
		{
			"bufferView":31,
			"componentType":5126,
			"count":11312,
			"type":"VEC3"
		},
		{
			"bufferView":32,
			"componentType":5126,
			"count":11312,
			"type":"VEC2"
		},
		{
			"bufferView":33,
			"componentType":5123,
			"count":61023,
			"type":"SCALAR"
		},
		{
			"bufferView":34,
			"componentType":5126,
			"count":10056,
			"max":[
				-12.4279203414917,
				-2.725059986114502,
				0.2666099965572357
			],
			"min":[
				-13.768730163574219,
				-4.0658698081970215,
				-0.13675999641418457
			],
			"type":"VEC3"
		},
		{
			"bufferView":35,
			"componentType":5126,
			"count":10056,
			"type":"VEC3"
		},
		{
			"bufferView":36,
			"componentType":5123,
			"count":58824,
			"type":"SCALAR"
		},
		{
			"bufferView":37,
			"componentType":5126,
			"count":10562,
			"max":[
				-12.785719871520996,
				-3.0924699306488037,
				0.20896999537944794
			],
			"min":[
				-13.400810241699219,
				-3.698240041732788,
				-0.03813000023365021
			],
			"type":"VEC3"
		},
		{
			"bufferView":38,
			"componentType":5126,
			"count":10562,
			"type":"VEC3"
		},
		{
			"bufferView":39,
			"componentType":5123,
			"count":62208,
			"type":"SCALAR"
		},
		{
			"bufferView":40,
			"componentType":5126,
			"count":7891,
			"max":[
				-11.480779647827148,
				-1.783750057220459,
				4.748189926147461
			],
			"min":[
				-14.207799911499023,
				-3.440999984741211,
				4.066229820251465
			],
			"type":"VEC3"
		},
		{
			"bufferView":41,
			"componentType":5126,
			"count":7891,
			"type":"VEC3"
		},
		{
			"bufferView":42,
			"componentType":5126,
			"count":7891,
			"type":"VEC2"
		},
		{
			"bufferView":43,
			"componentType":5123,
			"count":47328,
			"type":"SCALAR"
		},
		{
			"bufferView":44,
			"componentType":5126,
			"count":793,
			"max":[
				-9.301230430603027,
				2.6932499408721924,
				2.0944199562072754
			],
			"min":[
				-11.751420021057129,
				0.7702000141143799,
				-2.0944199562072754
			],
			"type":"VEC3"
		},
		{
			"bufferView":45,
			"componentType":5126,
			"count":793,
			"type":"VEC3"
		},
		{
			"bufferView":46,
			"componentType":5123,
			"count":4320,
			"type":"SCALAR"
		}
	],
	"bufferViews":[
		{
			"buffer":0,
			"byteLength":7164,
			"byteOffset":0,
			"target":34962
		},
		{
			"buffer":0,
			"byteLength":7164,
			"byteOffset":7164,
			"target":34962
		},
		{
			"buffer":0,
			"byteLength":4776,
			"byteOffset":14328,
			"target":34962
		},
		{
			"buffer":0,
			"byteLength":4584,
			"byteOffset":19104,
			"target":34963
		},
		{
			"buffer":0,
			"byteLength":8796,
			"byteOffset":23688,
			"target":34962
		},
		{
			"buffer":0,
			"byteLength":8796,
			"byteOffset":32484,
			"target":34962
		},
		{
			"buffer":0,
			"byteLength":8400,
			"byteOffset":41280,
			"target":34963
		},
		{
			"buffer":0,
			"byteLength":1044,
			"byteOffset":49680,
			"target":34962
		},
		{
			"buffer":0,
			"byteLength":1044,
			"byteOffset":50724,
			"target":34962
		},
		{
			"buffer":0,
			"byteLength":624,
			"byteOffset":51768,
			"target":34963
		},
		{
			"buffer":0,
			"byteLength":151848,
			"byteOffset":52392,
			"target":34962
		},
		{
			"buffer":0,
			"byteLength":151848,
			"byteOffset":204240,
			"target":34962
		},
		{
			"buffer":0,
			"byteLength":101232,
			"byteOffset":356088,
			"target":34962
		},
		{
			"buffer":0,
			"byteLength":142464,
			"byteOffset":457320,
			"target":34963
		},
		{
			"buffer":0,
			"byteLength":60852,
			"byteOffset":599784,
			"target":34962
		},
		{
			"buffer":0,
			"byteLength":60852,
			"byteOffset":660636,
			"target":34962
		},
		{
			"buffer":0,
			"byteLength":40568,
			"byteOffset":721488,
			"target":34962
		},
		{
			"buffer":0,
			"byteLength":57720,
			"byteOffset":762056,
			"target":34963
		},
		{
			"buffer":0,
			"byteLength":64560,
			"byteOffset":819776,
			"target":34962
		},
		{
			"buffer":0,
			"byteLength":64560,
			"byteOffset":884336,
			"target":34962
		},
		{
			"buffer":0,
			"byteLength":43040,
			"byteOffset":948896,
			"target":34962
		},
		{
			"buffer":0,
			"byteLength":62208,
			"byteOffset":991936,
			"target":34963
		},
		{
			"buffer":0,
			"byteLength":15420,
			"byteOffset":1054144,
			"target":34962
		},
		{
			"buffer":0,
			"byteLength":15420,
			"byteOffset":1069564,
			"target":34962
		},
		{
			"buffer":0,
			"byteLength":10280,
			"byteOffset":1084984,
			"target":34962
		},
		{
			"buffer":0,
			"byteLength":12960,
			"byteOffset":1095264,
			"target":34963
		},
		{
			"buffer":0,
			"byteLength":6576,
			"byteOffset":1108224,
			"target":34962
		},
		{
			"buffer":0,
			"byteLength":6576,
			"byteOffset":1114800,
			"target":34962
		},
		{
			"buffer":0,
			"byteLength":4384,
			"byteOffset":1121376,
			"target":34962
		},
		{
			"buffer":0,
			"byteLength":4152,
			"byteOffset":1125760,
			"target":34963
		},
		{
			"buffer":0,
			"byteLength":135744,
			"byteOffset":1129912,
			"target":34962
		},
		{
			"buffer":0,
			"byteLength":135744,
			"byteOffset":1265656,
			"target":34962
		},
		{
			"buffer":0,
			"byteLength":90496,
			"byteOffset":1401400,
			"target":34962
		},
		{
			"buffer":0,
			"byteLength":122046,
			"byteOffset":1491896,
			"target":34963
		},
		{
			"buffer":0,
			"byteLength":120672,
			"byteOffset":1613944,
			"target":34962
		},
		{
			"buffer":0,
			"byteLength":120672,
			"byteOffset":1734616,
			"target":34962
		},
		{
			"buffer":0,
			"byteLength":117648,
			"byteOffset":1855288,
			"target":34963
		},
		{
			"buffer":0,
			"byteLength":126744,
			"byteOffset":1972936,
			"target":34962
		},
		{
			"buffer":0,
			"byteLength":126744,
			"byteOffset":2099680,
			"target":34962
		},
		{
			"buffer":0,
			"byteLength":124416,
			"byteOffset":2226424,
			"target":34963
		},
		{
			"buffer":0,
			"byteLength":94692,
			"byteOffset":2350840,
			"target":34962
		},
		{
			"buffer":0,
			"byteLength":94692,
			"byteOffset":2445532,
			"target":34962
		},
		{
			"buffer":0,
			"byteLength":63128,
			"byteOffset":2540224,
			"target":34962
		},
		{
			"buffer":0,
			"byteLength":94656,
			"byteOffset":2603352,
			"target":34963
		},
		{
			"buffer":0,
			"byteLength":9516,
			"byteOffset":2698008,
			"target":34962
		},
		{
			"buffer":0,
			"byteLength":9516,
			"byteOffset":2707524,
			"target":34962
		},
		{
			"buffer":0,
			"byteLength":8640,
			"byteOffset":2717040,
			"target":34963
		}
	],
	"samplers":[
		{
			"magFilter":9729,
			"minFilter":9987
		}
	],
	"buffers":[
		{
			"byteLength":2725680,
			"uri":"scene.bin"
		}
	]
}
