{
	"asset":{
		"generator":"Khronos glTF Blender I/O v4.3.47",
		"version":"2.0"
	},
	"scene":0,
	"scenes":[
		{
			"name":"Scene",
			"nodes":[
				4
			]
		}
	],
	"nodes":[
		{
			"mesh":0,
			"name":"Cube.004_Nagoya_0"
		},
		{
			"children":[
				0
			],
			"name":"Cube.004",
			"rotation":[
				-0.70710688829422,
				0,
				0,
				0.7071066498756409
			],
			"scale":[
				100,
				99.99999237060547,
				99.99999237060547
			]
		},
		{
			"children":[
				1
			],
			"name":"RootNode"
		},
		{
			"children":[
				2
			],
			"name":"bafb027c32484ae89af8cd215d1117f7.fbx",
			"rotation":[
				0.70710688829422,
				0,
				0,
				0.7071066498756409
			],
			"scale":[
				0.009999999776482582,
				0.010000000707805157,
				0.010000000707805157
			]
		},
		{
			"children":[
				3
			],
			"name":"bus",
			"rotation":[
				-0.70710688829422,
				0,
				0,
				0.7071066498756409
			]
		}
	],
	"materials":[
		{
			"doubleSided":true,
			"emissiveFactor":[
				1,
				1,
				1
			],
			"emissiveTexture":{
				"index":0
			},
			"name":"Nagoya",
			"pbrMetallicRoughness":{
				"baseColorTexture":{
					"index":1
				},
				"metallicFactor":0,
				"metallicRoughnessTexture":{
					"index":2
				}
			}
		}
	],
	"meshes":[
		{
			"name":"Cube.004_Nagoya_0",
			"primitives":[
				{
					"attributes":{
						"POSITION":0,
						"NORMAL":1,
						"TEXCOORD_0":2,
						"TEXCOORD_1":3
					},
					"indices":4,
					"material":0
				}
			]
		}
	],
	"textures":[
		{
			"sampler":0,
			"source":0
		},
		{
			"sampler":0,
			"source":1
		},
		{
			"sampler":0,
			"source":2
		}
	],
	"images":[
		{
			"mimeType":"image/png",
			"name":"Nagoya_emissive",
			"uri":"Nagoya_emissive.png"
		},
		{
			"mimeType":"image/png",
			"name":"Nagoya_baseColor",
			"uri":"Nagoya_baseColor.png"
		},
		{
			"mimeType":"image/png",
			"name":"Nagoya_metallicRoughness",
			"uri":"Nagoya_metallicRoughness.png"
		}
	],
	"accessors":[
		{
			"bufferView":0,
			"componentType":5126,
			"count":3941,
			"max":[
				5.308556079864502,
				1.5012762546539307,
				1.385288953781128
			],
			"min":[
				-5.570154190063477,
				-1.4018330574035645,
				-1.7253072261810303
			],
			"type":"VEC3"
		},
		{
			"bufferView":1,
			"componentType":5126,
			"count":3941,
			"type":"VEC3"
		},
		{
			"bufferView":2,
			"componentType":5126,
			"count":3941,
			"type":"VEC2"
		},
		{
			"bufferView":3,
			"componentType":5126,
			"count":3941,
			"type":"VEC2"
		},
		{
			"bufferView":4,
			"componentType":5123,
			"count":12240,
			"type":"SCALAR"
		}
	],
	"bufferViews":[
		{
			"buffer":0,
			"byteLength":47292,
			"byteOffset":0,
			"target":34962
		},
		{
			"buffer":0,
			"byteLength":47292,
			"byteOffset":47292,
			"target":34962
		},
		{
			"buffer":0,
			"byteLength":31528,
			"byteOffset":94584,
			"target":34962
		},
		{
			"buffer":0,
			"byteLength":31528,
			"byteOffset":126112,
			"target":34962
		},
		{
			"buffer":0,
			"byteLength":24480,
			"byteOffset":157640,
			"target":34963
		}
	],
	"samplers":[
		{
			"magFilter":9729,
			"minFilter":9987
		}
	],
	"buffers":[
		{
			"byteLength":182120,
			"uri":"untitled.bin"
		}
	]
}
